<svg width="125" height="92" viewBox="0 0 125 92" fill="none" xmlns="http://www.w3.org/2000/svg">
<g clip-path="url(#clip0_10_356)">
<path d="M46.628 47.0872L50.3815 46.5717C53.1442 41.0704 52.7334 39.4112 52.4274 38.952C52.3817 38.8784 52.3192 38.8166 52.245 38.7718C52.1707 38.727 52.0869 38.7004 52.0005 38.6943L46.0481 38.5332C45.8709 39.0245 45.734 39.3387 45.7179 39.395C45.6746 39.4902 45.6058 39.5715 45.519 39.6298C45.4323 39.6882 45.331 39.7212 45.2265 39.7253H44.9044H44.7916C43.1133 40.2368 41.4649 40.8418 39.8541 41.5376C41.6584 42.1256 45.3796 42.0692 47.6429 41.8517C47.7503 41.8431 47.8579 41.865 47.9534 41.9149C48.0489 41.9647 48.1283 42.0406 48.1826 42.1336C48.2399 42.2239 48.2703 42.3287 48.2703 42.4357C48.2703 42.5426 48.2399 42.6474 48.1826 42.7377C47.468 44.1096 46.9449 45.5731 46.628 47.0872Z" stroke="#231F20" stroke-width="2" stroke-miterlimit="10"/>
<path d="M23.4792 36.3262C23.3906 36.1893 23.2617 36.0604 23.1651 36.0524C23.0684 36.0443 22.9637 36.1168 22.7865 36.3262C22.1421 37.0753 19.7177 41.159 18.5176 43.1968C18.8185 43.2818 19.1363 43.2872 19.4399 43.2123C19.7435 43.1375 20.0224 42.985 20.2493 42.7699V42.7699C22.2227 41.0623 23.2054 40.2166 23.7531 39.838C24.1961 39.2823 24.7035 38.7346 25.1465 38.2755L23.4792 36.3262Z" stroke="#231F20" stroke-width="2" stroke-miterlimit="10"/>
<path d="M33.6038 37.3089C32.2917 38.3198 31.0609 39.432 29.9228 40.6354C29.8628 40.7479 29.7751 40.8431 29.668 40.9122C29.5608 40.9813 29.4379 41.0218 29.3107 41.0301C29.0852 41.0301 28.4247 41.0865 26.4916 38.4849C25.5973 39.3329 24.788 40.2663 24.0752 41.2718C25.7747 43.0116 28.1025 45.3877 28.908 46.1045C29.504 45.8387 31.5096 44.8561 38.0983 41.1671C39.2003 40.6096 40.3355 40.12 41.4973 39.7011C37.5505 39.4514 35.0778 38.3882 33.6038 37.3089Z" stroke="#231F20" stroke-width="2" stroke-miterlimit="10"/>
<path d="M54.4088 47.7799C52.8704 47.8202 50.3171 47.7799 50.0593 47.7799L47.2402 48.1746C47.2402 49.6083 47.4577 51.0098 47.7155 51.2353C48.384 51.2353 54.0947 49.0686 55.7056 48.4001C55.5588 48.1963 55.3631 48.0327 55.1365 47.9243C54.9099 47.8159 54.6597 47.7663 54.4088 47.7799V47.7799Z" stroke="#231F20" stroke-width="2" stroke-miterlimit="10"/>
<path d="M41.6986 26.2258C40.7601 26.9973 39.9092 27.8698 39.1614 28.8274C37.2606 31.0102 34.9328 33.6602 32.6694 34.7637C33.4749 35.9477 36.2618 38.9843 44.7513 38.6299C45.1782 37.5344 46.467 33.8938 45.8951 31.3002C44.2197 31.3002 43.2049 31.1471 43.1807 31.1471C43.1072 31.1382 43.0361 31.1148 42.9717 31.0784C42.9072 31.0419 42.8505 30.9932 42.8049 30.9348C42.7592 30.8765 42.7255 30.8097 42.7057 30.7383C42.6859 30.667 42.6803 30.5924 42.6894 30.5189C42.6973 30.4457 42.7198 30.3748 42.7554 30.3104C42.791 30.246 42.839 30.1893 42.8967 30.1435C42.9544 30.0978 43.0206 30.064 43.0915 30.0441C43.1624 30.0242 43.2365 30.0186 43.3096 30.0276C48.1003 30.4206 52.9227 30.1277 57.6306 29.1577C57.4293 28.2555 57.0749 26.6366 56.9218 25.662C54.5457 26.105 45.6454 27.6031 41.6986 26.2258Z" stroke="#231F20" stroke-width="2" stroke-miterlimit="10"/>
<path d="M76.0516 24.7196C76.0516 19.919 76.0703 15.1185 76.1079 10.3179H58.9033V21.4655C59.0015 21.3544 59.131 21.2757 59.2748 21.2398C59.4186 21.2038 59.5699 21.2123 59.7088 21.2641C59.8908 21.3153 60.0583 21.4082 60.1981 21.5354C60.3379 21.6627 60.4462 21.8208 60.5142 21.9971C60.6967 22.4853 60.7656 23.0087 60.7156 23.5275C61.4477 23.3916 62.1375 23.0853 62.7293 22.6334C62.7926 22.514 62.8957 22.4205 63.0207 22.369C63.1457 22.3175 63.2848 22.3113 63.4139 22.3515C63.9213 22.5287 65.5886 23.157 65.5886 24.2927C65.5825 24.4639 65.5582 24.634 65.5161 24.8001L76.0516 24.7196Z" stroke="#231F20" stroke-width="2" stroke-miterlimit="10"/>
<path d="M63.3977 23.5194C62.4853 24.1742 61.4206 24.5846 60.3047 24.7115C60.1568 24.7438 60.0028 24.7337 59.8603 24.6824C59.7178 24.6311 59.5927 24.5407 59.4993 24.4215C59.4517 24.3251 59.4269 24.219 59.4269 24.1114C59.4269 24.0039 59.4517 23.8978 59.4993 23.8013C59.6153 23.3741 59.6153 22.9237 59.4993 22.4965C58.9218 23.4501 58.4543 24.4661 58.1058 25.525C58.2105 26.1613 58.428 27.2084 58.6455 28.1991C59.7153 28.3569 60.8037 28.3378 61.8673 28.1428V28.1428C62.9467 27.9092 63.889 26.2258 64.2837 25.1223C64.3921 24.8648 64.4652 24.5939 64.5012 24.3168C64.4367 24.0913 63.9454 23.7611 63.3977 23.5194Z" stroke="#231F20" stroke-width="2" stroke-miterlimit="10"/>
<path d="M16.6166 54.2558H11.5906C11.441 54.2558 11.2976 54.3152 11.1919 54.4209C11.0861 54.5267 11.0267 54.6701 11.0267 54.8196C11.0267 54.9691 11.0861 55.1125 11.1919 55.2183C11.2976 55.324 11.441 55.3834 11.5906 55.3834H16.6166C16.7662 55.3834 16.9096 55.324 17.0153 55.2183C17.121 55.1125 17.1804 54.9691 17.1804 54.8196C17.1804 54.6701 17.121 54.5267 17.0153 54.4209C16.9096 54.3152 16.7662 54.2558 16.6166 54.2558V54.2558Z" stroke="#231F20" stroke-width="2" stroke-miterlimit="10"/>
<path d="M60.6914 54.2558H19.919C19.7695 54.2558 19.6261 54.3152 19.5204 54.4209C19.4146 54.5267 19.3552 54.6701 19.3552 54.8196C19.3552 54.9691 19.4146 55.1125 19.5204 55.2183C19.6261 55.324 19.7695 55.3834 19.919 55.3834H60.6914C60.841 55.3834 60.9844 55.324 61.0901 55.2183C61.1958 55.1125 61.2552 54.9691 61.2552 54.8196C61.2552 54.6701 61.1958 54.5267 61.0901 54.4209C60.9844 54.3152 60.841 54.2558 60.6914 54.2558V54.2558Z" stroke="#231F20" stroke-width="2" stroke-miterlimit="10"/>
<path d="M66.8532 54.2558H62.6567C62.5072 54.2558 62.3638 54.3152 62.258 54.4209C62.1523 54.5267 62.0929 54.6701 62.0929 54.8196C62.0929 54.9691 62.1523 55.1125 62.258 55.2183C62.3638 55.324 62.5072 55.3834 62.6567 55.3834H66.8532C67.0027 55.3834 67.1461 55.324 67.2519 55.2183C67.3576 55.1125 67.417 54.9691 67.417 54.8196C67.417 54.6701 67.3576 54.5267 67.2519 54.4209C67.1461 54.3152 67.0027 54.2558 66.8532 54.2558V54.2558Z" stroke="#231F20" stroke-width="2" stroke-miterlimit="10"/>
<path d="M37.607 12.9115C37.913 12.3799 42.8827 10.1971 52.3711 6.46785L52.516 6.41147C50.3816 3.89843 47.2725 0.805466 46.2093 0.805466C44.252 0.910175 35.69 2.56942 32.7178 4.83277C32.5809 5.92014 32.0574 10.7932 32.7178 14.2083C32.738 14.3054 32.7314 14.4061 32.6987 14.4997C32.6661 14.5934 32.6087 14.6764 32.5326 14.7399V14.7399C30.9684 16.0897 29.4965 17.5428 28.1267 19.0894C29.8933 18.1651 31.6088 17.146 33.2655 16.0367V16.0367C34.7949 15.1143 36.2469 14.0691 37.607 12.9115V12.9115Z" stroke="#231F20" stroke-width="2" stroke-miterlimit="10"/>
<path d="M51.0017 18.6786C51.7251 19.0761 52.5363 19.2865 53.3617 19.2908C53.7393 19.2863 54.1151 19.2377 54.4813 19.1458C55.0555 17.8184 55.3515 16.3875 55.3512 14.9413V14.9413C55.3539 12.222 54.3098 9.60592 52.4354 7.63576C46.9342 9.81855 39.1615 13.0082 38.501 13.5881C37.1703 14.7861 35.7364 15.8643 34.2159 16.8099C34.5881 18.9632 35.6146 20.9495 37.1559 22.4985C38.6971 24.0476 40.6783 25.0841 42.8296 25.467C44.981 25.8499 47.1981 25.5606 49.1792 24.6385C51.1603 23.7164 52.8092 22.2063 53.9014 20.3137C53.6435 20.4057 53.3688 20.4414 53.0959 20.4184C51.775 20.2815 51.0662 18.8075 51.0017 18.6786ZM50.309 13.0807C50.3138 12.7902 50.4043 12.5076 50.5691 12.2684C50.7339 12.0293 50.9658 11.8441 51.2355 11.7362C51.5052 11.6284 51.8008 11.6026 52.0851 11.6622C52.3694 11.7217 52.6298 11.864 52.8335 12.0711C53.0373 12.2781 53.1753 12.5408 53.2302 12.826C53.2851 13.1113 53.2546 13.4064 53.1423 13.6743C53.0301 13.9423 52.8412 14.1711 52.5994 14.332C52.3575 14.4929 52.0735 14.5788 51.783 14.5788C51.5874 14.5788 51.3937 14.5399 51.2133 14.4644C51.0329 14.3888 50.8693 14.278 50.7321 14.1386C50.5949 13.9992 50.4869 13.8338 50.4142 13.6522C50.3416 13.4705 50.3058 13.2763 50.309 13.0807V13.0807Z" stroke="#231F20" stroke-width="2" stroke-miterlimit="10"/>
<path d="M20.1929 42.6813C19.9664 42.8971 19.6875 43.05 19.3838 43.1249C19.08 43.1998 18.762 43.194 18.4612 43.1082C19.6694 41.0543 22.0858 36.9948 22.7301 36.2376C22.8221 36.1047 22.9597 36.0101 23.1167 35.9718C23.2134 35.9718 23.3342 36.1088 23.4228 36.2376L25.0982 38.1949C24.6552 38.646 24.1397 39.2017 23.6967 39.7575C23.157 40.128 22.1663 40.9818 20.1929 42.6813ZM28.8355 46.0643C28.03 45.3393 25.7103 42.9632 24.0027 41.2315C24.7155 40.226 25.5248 39.2926 26.4191 38.4446C28.3522 41.0462 29.0127 40.9979 29.2382 40.9899C29.366 40.9839 29.49 40.9443 29.5975 40.875C29.705 40.8057 29.7922 40.7091 29.8504 40.5952C30.9884 39.3916 32.2191 38.2794 33.5313 37.2686C35.0295 38.3479 37.4781 39.4031 41.4007 39.685C40.2459 40.1117 39.1165 40.6038 38.0178 41.159C31.4291 44.848 29.4235 45.8307 28.8355 46.0884V46.0643ZM54.4089 47.7316C54.6575 47.7113 54.9073 47.7537 55.1353 47.855C55.3633 47.9564 55.5621 48.1133 55.7137 48.3115C54.1028 48.98 48.3921 51.1225 47.7155 51.1467C47.4658 50.9131 47.2564 49.5358 47.2483 48.0779L50.0674 47.6913C50.3171 47.6913 52.8704 47.7638 54.4089 47.6913V47.7316ZM51.9925 38.646C52.0807 38.6494 52.1666 38.6748 52.2426 38.7198C52.3185 38.7648 52.382 38.828 52.4274 38.9037C52.7335 39.3628 53.1362 41.0221 50.3816 46.5153L46.6603 47.0308C46.9402 45.5556 47.4113 44.1232 48.0618 42.7699C48.1211 42.6803 48.1527 42.5753 48.1527 42.4679C48.1527 42.3605 48.1211 42.2554 48.0618 42.1658C48.0076 42.0728 47.9281 41.997 47.8326 41.9471C47.7372 41.8972 47.6296 41.8753 47.5222 41.8839C45.2588 42.0933 41.5376 42.1497 39.7414 41.5698C41.3726 40.861 43.0426 40.2452 44.7433 39.7253H44.8561H45.1863C45.2905 39.7199 45.3911 39.6854 45.4766 39.6255C45.562 39.5657 45.6289 39.4831 45.6696 39.387C45.6696 39.3387 45.8227 39.0245 45.9999 38.5332L51.9925 38.646ZM43.2774 29.9792C43.2044 29.9697 43.1303 29.9746 43.0592 29.9938C42.9881 30.0129 42.9215 30.0459 42.8632 30.0907C42.8048 30.1356 42.7559 30.1915 42.7192 30.2553C42.6825 30.3191 42.6587 30.3895 42.6491 30.4625C42.6396 30.5355 42.6446 30.6096 42.6637 30.6807C42.6828 30.7518 42.7158 30.8184 42.7607 30.8767C42.8055 30.935 42.8615 30.984 42.9253 31.0207C42.989 31.0574 43.0594 31.0812 43.1324 31.0907C43.1324 31.0907 44.1715 31.2035 45.8388 31.2518C46.4187 33.8454 45.1219 37.4861 44.7031 38.5735C36.2055 38.9359 33.3864 35.8993 32.6614 34.7153C34.9167 33.636 37.2445 30.9619 39.1051 28.7871C39.8511 27.8229 40.7051 26.9473 41.6504 26.1774C45.5971 27.5628 54.4894 26.0647 56.8977 25.6217C57.0508 26.5882 57.4052 28.2153 57.6146 29.1174C52.9007 30.0835 48.0736 30.3764 43.2774 29.9873V29.9792ZM61.7627 28.0864C60.6995 28.2853 59.6104 28.3044 58.5409 28.1428C58.3314 27.1601 58.114 26.113 58.0093 25.4686C58.3558 24.4089 58.8233 23.3927 59.4027 22.4401C59.5108 22.8683 59.5108 23.3167 59.4027 23.745C59.3512 23.8402 59.3243 23.9468 59.3243 24.0551C59.3243 24.1633 59.3512 24.2699 59.4027 24.3652C59.4952 24.4858 59.6199 24.5777 59.7624 24.6305C59.9049 24.6832 60.0595 24.6945 60.2082 24.6632C61.3422 24.5284 62.4233 24.1071 63.3495 23.4389C63.8891 23.6805 64.3805 24.0108 64.4127 24.1718C64.3893 24.4737 64.3186 24.7699 64.2033 25.0498C63.7925 26.1533 62.8581 27.8286 61.7869 28.0622L61.7627 28.0864ZM76.0596 24.7196H65.4598C65.5024 24.5508 65.5267 24.378 65.5323 24.2041C65.5323 23.1006 63.873 22.4401 63.3575 22.271C63.2284 22.2308 63.0894 22.237 62.9644 22.2884C62.8393 22.3399 62.7362 22.4334 62.6729 22.5529C62.0702 23.0233 61.3628 23.341 60.6109 23.4792C60.6601 22.9577 60.5913 22.4319 60.4095 21.9407C60.3427 21.7645 60.2347 21.6068 60.0946 21.4807C59.9545 21.3546 59.7863 21.2638 59.6041 21.2158C59.4652 21.164 59.3139 21.1555 59.1701 21.1915C59.0263 21.2274 58.8968 21.3061 58.7986 21.4172V10.2696H76.0516V24.7196H76.0596Z" fill="#A5DACF"/>
<path d="M16.5522 54.2074H11.5342C11.3846 54.2074 11.2412 54.2668 11.1355 54.3726C11.0297 54.4783 10.9703 54.6217 10.9703 54.7713C10.9703 54.9208 11.0297 55.0642 11.1355 55.1699C11.2412 55.2757 11.3846 55.3351 11.5342 55.3351H16.5522C16.7017 55.3351 16.8451 55.2757 16.9509 55.1699C17.0566 55.0642 17.116 54.9208 17.116 54.7713C17.116 54.6217 17.0566 54.4783 16.9509 54.3726C16.8451 54.2668 16.7017 54.2074 16.5522 54.2074Z" fill="#A5DACF"/>
<path d="M60.6431 54.2074H19.8627C19.7131 54.2074 19.5697 54.2668 19.464 54.3726C19.3582 54.4783 19.2988 54.6217 19.2988 54.7713C19.2988 54.9208 19.3582 55.0642 19.464 55.1699C19.5697 55.2757 19.7131 55.3351 19.8627 55.3351H60.6431C60.7926 55.3351 60.936 55.2757 61.0418 55.1699C61.1475 55.0642 61.2069 54.9208 61.2069 54.7713C61.2069 54.6217 61.1475 54.4783 61.0418 54.3726C60.936 54.2668 60.7926 54.2074 60.6431 54.2074Z" fill="#A5DACF"/>
<path d="M66.7968 54.2074H62.6084C62.4588 54.2074 62.3154 54.2668 62.2097 54.3726C62.104 54.4783 62.0446 54.6217 62.0446 54.7713C62.0446 54.9208 62.104 55.0642 62.2097 55.1699C62.3154 55.2757 62.4588 55.3351 62.6084 55.3351H66.7968C66.9463 55.3351 67.0897 55.2757 67.1954 55.1699C67.3012 55.0642 67.3606 54.9208 67.3606 54.7713C67.3606 54.6217 67.3012 54.4783 67.1954 54.3726C67.0897 54.2668 66.9463 54.2074 66.7968 54.2074Z" fill="#A5DACF"/>
<path d="M37.5586 12.8632C37.8567 12.3316 42.8344 10.1488 52.3147 6.41951L52.4596 6.36313C50.3091 3.86621 47.2161 0.773239 46.1529 0.773239C44.2037 0.886004 35.6416 2.49692 32.6614 4.78443C32.5326 5.8718 32.001 10.7368 32.6614 14.16C32.6816 14.2563 32.6759 14.3563 32.6447 14.4498C32.6136 14.5432 32.5582 14.6266 32.4842 14.6916C30.9119 16.0352 29.4369 17.4887 28.0703 19.0411C29.8345 18.1124 31.5497 17.0935 33.2091 15.9884C34.7398 15.0641 36.1943 14.019 37.5586 12.8632Z" fill="#A5DACF"/>
<path d="M50.9534 18.6061C51.6741 19.0644 52.5162 19.2945 53.3698 19.2666C53.7221 19.2565 54.0715 19.1996 54.4088 19.0975C54.9823 17.7699 55.2784 16.3391 55.2787 14.893C55.2831 12.1733 54.2387 9.55669 52.3629 7.58743C46.8858 9.74607 39.1051 12.9679 38.4446 13.5317C37.122 14.7361 35.6902 15.8147 34.1676 16.7536C34.5476 18.9017 35.5792 20.8809 37.1224 22.4227C38.6655 23.9645 40.6456 24.9944 42.7941 25.3725C44.9425 25.7507 47.1552 25.4588 49.1321 24.5366C51.109 23.6143 52.7544 22.1063 53.845 20.217C53.5852 20.3011 53.3122 20.3366 53.0395 20.3218C52.576 20.2332 52.1421 20.0298 51.7776 19.73C51.4131 19.4303 51.1297 19.0438 50.9534 18.6061ZM50.2526 12.9679C50.251 12.6741 50.3368 12.3865 50.4991 12.1415C50.6613 11.8966 50.8927 11.7054 51.1638 11.5922C51.4349 11.479 51.7336 11.449 52.0218 11.5059C52.3101 11.5628 52.5749 11.7042 52.7826 11.9119C52.9904 12.1197 53.1317 12.3845 53.1886 12.6727C53.2456 12.9609 53.2155 13.2596 53.1024 13.5307C52.9892 13.8019 52.798 14.0333 52.553 14.1955C52.3081 14.3577 52.0204 14.4435 51.7266 14.4419C51.3472 14.4403 50.9829 14.2932 50.7086 14.031C50.4344 13.7687 50.2712 13.4113 50.2526 13.0323V12.9679Z" fill="#A5DACF"/>
<path d="M16.9791 63.7683C17.9057 64.7481 18.6406 65.8928 19.1458 67.1432C19.5818 68.3179 19.6657 69.5943 19.3874 70.816C19.1432 71.9701 18.633 73.0513 17.8973 73.9735C17.1367 74.9507 16.2163 75.7922 15.1749 76.4623C13.4716 77.5303 11.5393 78.179 9.53667 78.3552C7.51605 78.58 5.47158 78.2804 3.60043 77.4853C2.64053 77.0969 1.7672 76.522 1.03102 75.7938C0.697403 75.4686 0.43384 75.0787 0.256537 74.6479C0.0792341 74.2171 -0.00805927 73.7546 2.61943e-05 73.2888C0.00883372 72.7662 0.115378 72.2499 0.314155 71.7665C0.506708 71.267 0.778699 70.8019 1.11962 70.3892C1.46136 70.0246 1.82161 69.6778 2.19893 69.3501C2.51306 69.044 2.90774 68.6977 3.36685 68.3191C3.42725 68.2652 3.49987 68.2267 3.57845 68.207C3.65703 68.1874 3.73921 68.1872 3.81791 68.2064C3.88606 68.2165 3.94979 68.2463 4.00129 68.292C4.05279 68.3378 4.08983 68.3976 4.10787 68.4641C4.1247 68.5397 4.12246 68.6183 4.10137 68.6928C4.08028 68.7673 4.041 68.8354 3.98705 68.891L3.66487 69.1568L3.33463 69.5112L3.0205 69.8495C2.90307 69.9668 2.79533 70.0934 2.69832 70.2281L2.42446 70.5986C2.31577 70.726 2.22375 70.8667 2.1506 71.0174L1.94118 71.4121C1.86484 71.5522 1.80536 71.701 1.76398 71.8551C1.76398 71.984 1.7076 72.129 1.68344 72.29C1.66749 72.4454 1.66749 72.6019 1.68344 72.7572C1.70944 73.2409 1.89983 73.7013 2.2231 74.0621C2.53412 74.4391 2.91408 74.7534 3.34269 74.9883C3.76936 75.2164 4.21714 75.4025 4.67975 75.5441C5.71656 75.8914 6.80981 76.039 7.90159 75.9791C8.99247 75.9263 10.0612 75.6523 11.0429 75.1736C12.8793 74.3198 13.9533 73.2754 14.2647 72.0403C14.3733 71.5985 14.3733 71.137 14.2647 70.6952C14.1241 70.1683 13.8835 69.6734 13.5559 69.2373C13.1935 68.7299 12.9035 68.3433 12.6699 68.0694C12.4363 67.7956 12.09 67.4251 11.6148 66.9418L11.3006 66.6035C10.8576 66.1283 10.2133 65.4759 9.34336 64.6462C8.47347 63.8166 7.73244 63.0997 7.17668 62.5037C6.62091 61.9077 5.97654 61.2069 5.30801 60.4095C4.67267 59.6449 4.1318 58.8066 3.69709 57.9126C3.28581 57.0744 2.98527 56.1863 2.80303 55.2707C2.58104 54.1867 2.60169 53.067 2.86349 51.9919C3.1253 50.9169 3.62177 49.9131 4.31729 49.0525C5.69045 47.217 7.70256 45.9637 9.95551 45.5407C10.9034 45.3369 11.8876 45.3785 12.8149 45.6615C13.6747 45.9218 14.4575 46.3892 15.0943 47.0228C15.7313 47.6871 16.2272 48.4734 16.5522 49.3344C16.9047 50.2201 17.0719 51.1685 17.0436 52.1213C17.0446 52.1619 17.0347 52.2021 17.0149 52.2375C16.995 52.273 16.966 52.3024 16.9308 52.3227C16.8981 52.3484 16.8606 52.3673 16.8205 52.3783C16.7804 52.3894 16.7385 52.3924 16.6972 52.3871C16.6603 52.3796 16.6272 52.3593 16.6036 52.3299C16.5801 52.3005 16.5676 52.2637 16.5683 52.226C16.5223 51.4965 16.3113 50.787 15.9514 50.1508C15.5914 49.5146 15.0918 48.9683 14.4903 48.5531C13.8899 48.1274 13.1955 47.853 12.4662 47.7534C11.7369 47.6538 10.9944 47.732 10.3019 47.9813C9.83913 48.1333 9.41319 48.3802 9.05122 48.7061C8.68925 49.032 8.39921 49.4298 8.19961 49.8741C7.72192 50.7606 7.56542 51.785 7.75661 52.7737C7.86174 53.334 8.04616 53.8764 8.30432 54.3847C8.59257 54.9588 8.94376 55.4991 9.35142 55.9956C9.79442 56.5433 10.1569 56.9782 10.463 57.3085C10.769 57.6387 11.1718 58.0656 11.7195 58.6053C12.1061 59 12.9277 59.7812 14.1842 60.9572C15.4407 62.1332 16.3509 63.0675 16.9791 63.7683Z" fill="#F04A38"/>
<path d="M35.1584 65.6933C35.0859 65.8705 35.0698 65.8947 35.102 65.7497L34.949 66.1202C34.7125 66.6271 34.415 67.1032 34.063 67.5378C33.3841 68.3886 32.5076 69.0605 31.5097 69.4951C30.5371 69.9485 29.4598 70.1294 28.3925 70.0186C27.5242 69.9252 26.6933 69.6149 25.9761 69.1165C26.0418 69.8194 26.2016 70.5102 26.4514 71.1704C26.5341 71.4134 26.6336 71.6502 26.7494 71.8792C26.8834 72.1095 27.037 72.3278 27.2085 72.5317C27.5665 72.99 27.9836 73.3989 28.4489 73.7479C28.8167 74.0098 29.2211 74.216 29.649 74.3601C30.0703 74.5313 30.5239 74.6082 30.9781 74.5856C31.559 74.5177 32.1265 74.363 32.6615 74.1265C32.9588 73.9998 33.2492 73.8573 33.5314 73.6996C33.8938 73.4982 34.1757 73.3532 34.3368 73.2727C34.4552 73.2084 34.5912 73.1838 34.7246 73.2027C34.8581 73.2215 34.9819 73.2828 35.0778 73.3774C35.2712 73.5304 35.2873 73.7318 35.1342 73.9815C34.7512 74.6008 34.2601 75.1465 33.6844 75.5924C33.0773 76.0775 32.4182 76.4936 31.7191 76.8328C30.2193 77.5602 28.5351 77.8184 26.8863 77.5738C25.5376 77.4349 24.2531 76.9278 23.1731 76.1079C21.9788 75.158 21.146 73.8276 20.8131 72.3384C20.4862 70.9105 20.4479 69.4317 20.7004 67.9889C20.9349 66.5256 21.4403 65.1188 22.1905 63.8408C22.7551 62.9175 23.4254 62.0633 24.188 61.2955C24.9772 60.5032 25.8881 59.8424 26.8863 59.3382C27.8451 58.8219 28.9146 58.5456 30.0034 58.5328C30.6882 58.539 31.3596 58.7221 31.9527 59.0644C32.9915 59.3331 33.9018 59.9608 34.5221 60.8364C35.2021 61.7423 35.5517 62.8536 35.5128 63.9857C35.4879 64.3838 35.4341 64.7795 35.3517 65.1698C35.3147 65.3532 35.2495 65.5298 35.1584 65.6933ZM32.0976 65.1859C32.0976 65.1859 32.0976 65.0973 32.0976 64.9603C32.0976 64.8234 32.0976 64.7509 32.0976 64.7429C32.0976 64.4932 32.0976 64.3079 32.0976 64.1952V63.9777C32.1032 63.9457 32.1032 63.913 32.0976 63.881C32.1 63.8489 32.1 63.8165 32.0976 63.7844C32.0685 63.7054 32.0443 63.6247 32.0252 63.5427C32.0252 63.4139 31.9607 63.3092 31.9365 63.2367C31.9194 63.1865 31.8978 63.138 31.8721 63.0917L31.8157 62.9709C31.8157 62.9709 31.8157 62.9709 31.8157 63.0433L31.7271 62.9064L31.4774 62.4876C31.3206 62.2789 31.1483 62.0823 30.9619 61.8996C30.4508 61.9255 29.951 62.06 29.496 62.2943C29.3671 62.3507 29.1658 62.4473 28.908 62.5923L28.7872 62.697L28.5133 62.8903C28.4522 62.9267 28.3955 62.9699 28.3442 63.0192C28.3008 63.0472 28.2626 63.0827 28.2314 63.1239C28.1956 63.1636 28.155 63.1988 28.1106 63.2286L27.9495 63.3897L27.3132 64.1307C27.2858 64.1555 27.2639 64.1856 27.2488 64.2193L27.136 64.3885L27.0313 64.5576C26.8944 64.7912 26.7413 65.0731 26.5722 65.3631C26.5525 65.4109 26.5282 65.4568 26.4997 65.5C26.474 65.5463 26.4524 65.5949 26.4353 65.645C26.4353 65.645 26.4353 65.6853 26.4353 65.6933C26.4353 65.7014 26.3708 65.9269 26.3225 66.1041L26.2017 66.4907C26.2017 66.4907 26.2017 66.6276 26.1292 66.821C26.1002 66.9267 26.0787 67.0344 26.0647 67.1431C26.03 67.3914 26.0111 67.6416 26.0084 67.8922C26.2076 68.0779 26.4295 68.2376 26.6688 68.3674C27.3919 68.8089 28.2489 68.9775 29.0852 68.8427C29.7825 68.7609 30.4307 68.4425 30.9217 67.9405C31.3865 67.5018 31.7233 66.945 31.8963 66.3296L32.0574 65.7336V65.6611V65.6047C32.0491 65.5163 32.0491 65.4273 32.0574 65.3389C32.0732 65.2886 32.0866 65.2375 32.0976 65.1859Z" fill="#F04A38"/>
<path d="M51.1064 65.6933C51.0339 65.8705 51.0178 65.8947 51.0501 65.7497L50.897 66.1202C50.6606 66.6271 50.363 67.1032 50.011 67.5378C49.3322 68.3886 48.4556 69.0605 47.4577 69.4951C46.4878 69.9478 45.4133 70.1288 44.3486 70.0186C43.4803 69.9252 42.6494 69.6149 41.9322 69.1165C41.9979 69.8194 42.1577 70.5102 42.4075 71.1704C42.4902 71.4134 42.5897 71.6502 42.7055 71.8792C42.8458 72.1073 43.0019 72.3254 43.1727 72.5317C43.5256 72.9918 43.9403 73.4011 44.405 73.7479C44.7728 74.0098 45.1772 74.216 45.6051 74.3601C46.029 74.5319 46.4854 74.6089 46.9422 74.5856C47.5204 74.5166 48.085 74.3618 48.6176 74.1265C48.9157 74.0014 49.2061 73.8589 49.4875 73.6996C49.8499 73.4982 50.1318 73.3532 50.2929 73.2727C50.3995 73.2192 50.5193 73.1976 50.6379 73.2105C50.7564 73.2233 50.8688 73.2701 50.9615 73.3452C51.1548 73.4982 51.1709 73.6996 51.0178 73.9493C50.6348 74.5686 50.1437 75.1142 49.568 75.5602C48.9624 76.0473 48.303 76.4635 47.6027 76.8006C46.1029 77.5279 44.4187 77.7862 42.7699 77.5416C41.434 77.3823 40.1669 76.8615 39.1051 76.0354C37.9103 75.0873 37.0795 73.7558 36.7531 72.2659C36.4196 70.8391 36.3785 69.3595 36.6323 67.9164C36.8879 66.4754 37.4067 65.0938 38.1627 63.8408C38.72 62.9168 39.3851 62.0624 40.1441 61.2955C40.9286 60.5013 41.8373 59.8402 42.8344 59.3382C43.7956 58.821 44.868 58.5446 45.9595 58.5328C46.6417 58.5389 47.3106 58.7221 47.9007 59.0644C48.9396 59.3331 49.8498 59.9608 50.4701 60.8364C51.1502 61.7423 51.4998 62.8536 51.4608 63.9857C51.436 64.3838 51.3821 64.7795 51.2997 65.1698C51.2627 65.3532 51.1975 65.5298 51.1064 65.6933ZM48.0457 65.1859C48.0457 65.1859 48.0457 65.0973 48.0457 64.9603C48.0457 64.8234 48.0457 64.7509 48.0457 64.7429C48.0457 64.4932 48.0457 64.3079 48.0457 64.1952V63.9777C48.0513 63.9457 48.0513 63.913 48.0457 63.881C48.048 63.8489 48.048 63.8165 48.0457 63.7844L47.9732 63.5427C47.9732 63.4139 47.9088 63.3092 47.8846 63.2367C47.8604 63.1642 47.8846 63.1561 47.8282 63.0917C47.8039 63.053 47.7824 63.0126 47.7638 62.9709C47.7638 62.9709 47.7638 62.9709 47.7638 63.0433L47.6752 62.9064L47.4255 62.4876C47.2687 62.2789 47.0964 62.0823 46.91 61.8996C46.3988 61.9255 45.8991 62.06 45.444 62.2943C45.3152 62.3507 45.1138 62.4473 44.8561 62.5923L44.7352 62.697L44.4614 62.8903C44.4003 62.9267 44.3435 62.9699 44.2922 63.0192C44.2488 63.0472 44.2107 63.0827 44.1795 63.1239C44.1436 63.1636 44.1031 63.1988 44.0587 63.2286L43.9056 63.3897L43.2613 64.1307C43.2339 64.1555 43.2119 64.1856 43.1968 64.2193L43.0841 64.3885L42.9793 64.5576C42.8424 64.7912 42.6894 65.0731 42.5202 65.3631C42.5005 65.4109 42.4762 65.4568 42.4477 65.5C42.422 65.5463 42.4005 65.5949 42.3833 65.645C42.3833 65.645 42.3833 65.6853 42.3833 65.6933C42.3833 65.7014 42.3189 65.9269 42.2705 66.1041C42.2222 66.2813 42.1819 66.4102 42.1578 66.4907C42.1216 66.5983 42.0946 66.7088 42.0772 66.821C42.0772 67.0143 42.0128 67.127 42.0128 67.1431C41.978 67.3914 41.9592 67.6416 41.9564 67.8922C42.1556 68.0779 42.3775 68.2376 42.6169 68.3674C43.3399 68.8089 44.1969 68.9775 45.0333 68.8427C45.7325 68.7595 46.3828 68.4415 46.8778 67.9405C47.3378 67.4993 47.6715 66.9431 47.8443 66.3296L48.0054 65.7336V65.6611V65.6047C47.9971 65.5163 47.9971 65.4273 48.0054 65.3389C48.0212 65.2886 48.0347 65.2375 48.0457 65.1859Z" fill="#F04A38"/>
<path d="M84.968 64.316C85.8068 67.9927 85.8068 71.811 84.968 75.4877C84.8612 75.9217 84.5971 76.3005 84.227 76.5509C83.8564 76.841 83.4399 77.067 82.9946 77.2194C82.5748 77.3627 82.1437 77.4705 81.7059 77.5416H80.6588C80.2491 77.5427 79.8482 77.4222 79.507 77.1953C79.3513 77.1111 79.2318 76.973 79.171 76.8068C79.1102 76.6406 79.1122 76.4579 79.1768 76.2932C79.5723 74.9229 79.8684 73.5258 80.0628 72.1128C80.0628 71.839 80.0628 71.1946 80.1353 70.1636C80.2078 69.1326 80.1916 68.3433 80.1353 67.7472C80.0951 66.4752 79.9169 65.2112 79.6037 63.9777C79.4114 63.0629 79.0626 62.1882 78.5727 61.3922C78.3979 61.1059 78.1775 60.8502 77.9202 60.635C77.7618 60.5024 77.5665 60.4213 77.3607 60.4026C77.1549 60.3838 76.9482 60.4284 76.7684 60.5303C76.433 60.7633 76.1249 61.0335 75.8502 61.3358C75.2404 62.0526 74.736 62.8527 74.3521 63.7119C73.477 65.7337 72.8861 67.867 72.5962 70.0509C72.5419 71.879 72.3235 73.6986 71.9437 75.4877C71.8369 75.9217 71.5729 76.3005 71.2027 76.5509C70.8321 76.841 70.4156 77.067 69.9704 77.2194C69.5505 77.3627 69.1194 77.4705 68.6816 77.5416H67.6345C67.2283 77.5435 66.8306 77.4259 66.4908 77.2033C66.3351 77.1192 66.2156 76.981 66.1548 76.8148C66.0939 76.6487 66.096 76.466 66.1605 76.3012C66.5595 74.9308 66.861 73.5339 67.0626 72.1209C67.0626 71.9115 67.0626 71.3154 67.1271 70.22C67.1915 69.1246 67.1754 68.3513 67.1271 67.8036C67.087 66.5316 66.9087 65.2676 66.5955 64.0341C66.3977 63.1033 66.0378 62.2145 65.5323 61.4083C65.3575 61.122 65.1371 60.8663 64.8798 60.6511C64.7244 60.5188 64.5319 60.4377 64.3286 60.419C64.1253 60.4002 63.9212 60.4447 63.7441 60.5464C63.4087 60.7794 63.1006 61.0496 62.8259 61.3519C62.2344 62.0667 61.7464 62.8612 61.3761 63.7119C60.871 64.7627 60.4795 65.8643 60.2082 66.9982C59.9182 68.158 59.6605 69.5676 59.4027 71.2268C59.145 72.8861 58.9758 74.0298 58.847 74.65C58.6947 75.5249 58.2061 76.3055 57.4857 76.8248C57.1191 77.1029 56.7039 77.3105 56.2614 77.4369C55.7841 77.5829 55.2788 77.6132 54.7874 77.5255C54.561 77.4946 54.3441 77.4144 54.1521 77.2905C53.96 77.1666 53.7975 77.0022 53.6759 76.8087C53.2339 76.06 52.9182 75.2436 52.7416 74.3923C52.546 73.5308 52.4488 72.6499 52.4516 71.7665C52.4516 70.961 52.4516 70.0509 52.508 69.1407C52.6046 67.5298 52.7362 66.037 52.9027 64.6623C53.0369 63.1776 53.3066 61.7083 53.7081 60.2726C53.8485 59.8474 54.0985 59.4668 54.433 59.1691C54.76 58.8634 55.1636 58.6519 55.6009 58.5569C55.972 58.458 56.3653 58.4835 56.7205 58.6294C56.8917 58.7044 57.045 58.815 57.17 58.9539C57.295 59.0928 57.3889 59.2568 57.4454 59.4349C57.8242 60.7255 57.9849 62.0703 57.9207 63.4139C57.9207 63.873 57.9207 64.5576 57.9207 65.4678C57.9207 66.378 57.9207 67.0787 57.9207 67.5056C57.9207 69.1165 57.969 70.3811 58.0657 71.3638C58.0689 71.4147 58.0689 71.4658 58.0657 71.5168C58.072 71.5649 58.072 71.6137 58.0657 71.6618C58.1381 72.0162 58.1945 72.282 58.2429 72.4672L58.3153 72.6767C58.3153 72.7733 58.3798 72.8539 58.4039 72.9102C58.5224 71.2732 58.7294 69.6438 59.0242 68.0292C59.3618 65.9056 59.9569 63.831 60.7962 61.8513C61.1101 61.0388 61.5902 60.3009 62.2057 59.6846C63.0685 58.9572 64.1175 58.4857 65.2343 58.3234C66.0882 58.1636 66.9692 58.233 67.7876 58.5247C68.5531 58.7986 69.2354 59.2645 69.769 59.8779C70.3054 60.4953 70.7626 61.1771 71.1302 61.9077C71.5049 62.6792 71.7939 63.4895 71.9921 64.324C72.1412 64.9379 72.2595 65.5589 72.3465 66.1847C72.6591 64.6983 73.1262 63.2487 73.7399 61.8593C74.0624 61.0412 74.5536 60.3002 75.1817 59.6846C76.0435 58.9558 77.093 58.4841 78.2102 58.3234C79.0641 58.1636 79.9452 58.233 80.7635 58.5247C81.529 58.7986 82.2113 59.2645 82.7449 59.8779C83.2815 60.4934 83.7363 61.1757 84.0981 61.9077C84.4786 62.6748 84.7704 63.4828 84.968 64.316Z" fill="#F04A38"/>
<path d="M99.1118 60.3853C99.7648 60.6212 100.355 61.0043 100.836 61.5049C101.343 62.0123 101.755 62.6071 102.052 63.2608C102.354 63.9484 102.599 64.6596 102.785 65.3872C102.975 66.1155 103.07 66.8655 103.067 67.6184C103.062 68.3129 103.019 69.0066 102.938 69.6964C102.747 71.1179 102.243 72.4795 101.464 73.6835C100.992 74.3456 100.424 74.9345 99.7804 75.4313C99.3444 75.7517 98.8839 76.0372 98.403 76.2851C97.9765 76.5209 97.5321 76.7228 97.074 76.8892C95.9938 77.2537 94.8632 77.4466 93.7233 77.4611C92.5886 77.479 91.4604 77.285 90.3968 76.8892C89.6701 76.5561 89.018 76.0798 88.4797 75.4888C87.9413 74.8979 87.5277 74.2044 87.2635 73.4499C86.6766 71.9107 86.4507 70.2574 86.603 68.6171C86.7758 66.9811 87.2655 65.3943 88.0448 63.9455C89.1448 61.6853 91.0451 59.9142 93.377 58.9758C94.6716 58.4301 96.1018 58.2924 97.4768 58.5811C97.8757 58.6785 98.2423 58.8784 98.5404 59.1609C98.8385 59.4434 99.0577 59.7988 99.1763 60.192C99.1846 60.227 99.183 60.2637 99.1716 60.2979C99.1602 60.332 99.1395 60.3623 99.1118 60.3853ZM100.175 68.6332C100.38 67.4986 100.38 66.3366 100.175 65.202C100.078 64.6784 99.9737 64.2274 99.869 63.8327C99.74 63.3918 99.5784 62.961 99.3857 62.544C99.1901 62.1043 98.9173 61.7033 98.5802 61.3599C98.2538 61.0332 97.861 60.7805 97.4284 60.6189C97.2915 60.5706 97.2754 60.49 97.4284 60.3692C97.0874 60.3166 96.7425 60.2924 96.3974 60.2967H96.1719L95.9625 60.3934L95.745 60.49C95.1871 60.8013 94.7034 61.2301 94.3274 61.7466C93.3266 63.0233 92.6595 64.5292 92.3863 66.1283C92.1685 67.2545 92.1467 68.4098 92.3218 69.5434C92.4345 70.6259 92.8076 71.665 93.4092 72.5719C93.571 72.801 93.7545 73.0141 93.9569 73.2083C94.077 73.3276 94.2034 73.4406 94.3355 73.5465L94.3838 73.6029C94.6061 73.7419 94.8375 73.8657 95.0765 73.9734L95.447 74.1345H95.5356L96.1236 74.2392C96.1763 74.2536 96.2319 74.2536 96.2847 74.2392H96.7196C96.8888 74.1748 96.9693 74.1506 96.9693 74.1748C97.1842 74.0639 97.389 73.9346 97.5815 73.7882C97.7844 73.6103 97.9754 73.4192 98.1533 73.2163C98.5144 72.8191 98.828 72.3812 99.0877 71.9115C99.6149 70.8805 99.9816 69.775 100.175 68.6332Z" fill="#F04A38"/>
<path d="M123.614 64.316C124.437 67.9966 124.418 71.8156 123.558 75.4877C123.454 75.921 123.193 76.3002 122.825 76.5509C122.45 76.8396 122.031 77.0654 121.584 77.2194C121.167 77.3626 120.739 77.4704 120.304 77.5416H119.248C118.839 77.5418 118.438 77.4213 118.097 77.1953C117.942 77.1099 117.824 76.9716 117.763 76.8059C117.702 76.6401 117.704 76.4581 117.766 76.2932C118.165 74.9228 118.467 73.5258 118.668 72.1128C118.668 71.9034 118.668 71.3074 118.733 70.2119C118.797 69.1165 118.781 68.3433 118.733 67.7956C118.693 66.5235 118.515 65.2596 118.201 64.026C118.002 63.0969 117.645 62.2087 117.146 61.4002C116.971 61.1118 116.748 60.8557 116.486 60.6431C116.332 60.5103 116.141 60.4289 115.939 60.4101C115.736 60.3914 115.533 60.4362 115.358 60.5384C115.018 60.7692 114.708 61.0396 114.432 61.3438C113.845 62.0636 113.36 62.8604 112.99 63.7119C112.485 64.7627 112.093 65.8643 111.822 66.9982C111.537 68.158 111.269 69.5676 111.017 71.2268C110.775 72.8861 110.59 74.0298 110.461 74.65C110.309 75.5249 109.82 76.3055 109.1 76.8248C108.736 77.1028 108.323 77.3105 107.883 77.4369C107.403 77.5814 106.896 77.6118 106.401 77.5255C106.176 77.4951 105.96 77.415 105.769 77.291C105.578 77.1671 105.417 77.0023 105.298 76.8087C104.85 76.0621 104.531 75.2451 104.355 74.3923C104.16 73.5308 104.063 72.6499 104.065 71.7665C104.065 70.961 104.065 70.0508 104.13 69.1407C104.221 67.5298 104.35 66.037 104.517 64.6623C104.655 63.1782 104.924 61.7092 105.322 60.2726C105.468 59.8502 105.717 59.471 106.047 59.1691C106.375 58.865 106.778 58.6538 107.215 58.5569C107.586 58.458 107.979 58.4835 108.334 58.6294C108.506 58.7044 108.659 58.815 108.784 58.9539C108.909 59.0928 109.003 59.2568 109.059 59.4349C109.438 60.7255 109.599 62.0703 109.535 63.4139C109.535 63.873 109.535 64.5576 109.535 65.4678C109.535 66.378 109.535 67.0787 109.535 67.5056C109.535 69.1165 109.583 70.3811 109.68 71.3637C109.683 71.4147 109.683 71.4658 109.68 71.5168C109.685 71.565 109.685 71.6136 109.68 71.6618C109.724 71.9332 109.783 72.2021 109.857 72.4672C109.873 72.5386 109.894 72.6086 109.921 72.6766C109.961 72.7733 109.986 72.8538 110.01 72.9102C110.132 71.2736 110.339 69.6444 110.63 68.0291C110.968 65.9083 111.563 63.8365 112.402 61.8593C112.726 61.0376 113.22 60.2937 113.852 59.6765C114.716 58.9506 115.764 58.4793 116.88 58.3153C117.737 58.156 118.621 58.2254 119.442 58.5167C120.205 58.794 120.887 59.2594 121.423 59.8698C121.954 60.4894 122.409 61.1709 122.776 61.8996C123.139 62.6736 123.42 63.4835 123.614 64.316Z" fill="#F04A38"/>
<path d="M0.716919 83.6712H5.3161V84.4766H1.59487V86.893H5.05029V87.6985H1.59487V91.0975H0.716919V83.6712Z" fill="black"/>
<path d="M8.07068 87.3521C8.07068 87.1266 8.07068 86.9172 8.07068 86.7239C8.07068 86.5225 8.07068 86.3453 8.07068 86.1842H8.87614C8.87614 86.3211 8.87614 86.45 8.87614 86.5869C8.87614 86.7239 8.87614 86.8527 8.87614 86.9977C8.93789 86.8722 9.01648 86.7557 9.10972 86.6514C9.21535 86.5349 9.33746 86.4345 9.47218 86.3534C9.61683 86.2611 9.77423 86.1905 9.93935 86.1439C10.1246 86.0874 10.3176 86.0602 10.5112 86.0634H10.6723H10.8415L10.7931 86.8689C10.6492 86.8269 10.5001 86.8052 10.3501 86.8044C10.1408 86.7861 9.93027 86.8217 9.73854 86.9077C9.54681 86.9937 9.38026 87.1273 9.2547 87.2957C9.00868 87.6937 8.8906 88.1576 8.91641 88.6248V91.0411H8.11095L8.07068 87.3521Z" fill="black"/>
<path d="M17.6154 90.1954C17.3722 90.5434 17.0416 90.8212 16.6569 91.0009C16.2713 91.1587 15.8573 91.2355 15.4407 91.2264C15.084 91.2335 14.7298 91.1649 14.4016 91.025C14.0996 90.8975 13.8258 90.7113 13.5962 90.4773C13.3851 90.2407 13.2186 89.9678 13.1048 89.6719C12.8689 89.0103 12.8689 88.2875 13.1048 87.626C13.2272 87.327 13.4048 87.0537 13.6284 86.8205C13.8594 86.5921 14.1331 86.4115 14.4339 86.2889C14.7548 86.1642 15.0964 86.1014 15.4407 86.1037C15.7626 86.1007 16.0823 86.1581 16.3831 86.2728C16.662 86.3855 16.9123 86.5589 17.116 86.7802C17.3339 87.0103 17.4988 87.2852 17.5993 87.5857C17.714 87.9337 17.7685 88.2987 17.7604 88.665V88.9308H13.8378C13.8524 89.1397 13.9042 89.3443 13.9908 89.5349C14.077 89.7179 14.1911 89.8864 14.3291 90.0343C14.4684 90.179 14.6356 90.2941 14.8205 90.3726C15.0152 90.4607 15.227 90.5048 15.4407 90.5015C15.7525 90.5105 16.062 90.4442 16.3428 90.3082C16.5985 90.1733 16.8234 89.9868 17.0033 89.7604L17.6154 90.1954ZM16.9147 88.1979C16.9187 88.0116 16.8851 87.8264 16.8159 87.6534C16.7467 87.4804 16.6433 87.3231 16.5119 87.191C16.2184 86.9291 15.8336 86.7931 15.4407 86.8125C15.0436 86.7836 14.6512 86.9131 14.3493 87.1727C14.0474 87.4323 13.8606 87.8009 13.8298 88.1979H16.9147Z" fill="black"/>
<path d="M20.8453 89.8007C20.991 89.9904 21.1681 90.1539 21.3688 90.284C21.593 90.4074 21.8461 90.4686 22.1018 90.4612C22.2277 90.4727 22.3545 90.4727 22.4804 90.4612C22.6048 90.4339 22.7243 90.3877 22.8348 90.3243C22.9326 90.2637 23.0175 90.1843 23.0845 90.0907C23.1511 89.9877 23.1848 89.8669 23.1811 89.7443C23.1848 89.6305 23.1539 89.5181 23.0925 89.4222C23.0237 89.3376 22.9422 89.2643 22.8509 89.2047C22.7474 89.1446 22.6363 89.0986 22.5207 89.0678C22.3918 89.0275 22.2629 89.0033 22.134 88.9711C22.0052 88.9389 21.683 88.8664 21.4736 88.802C21.2792 88.7441 21.0926 88.663 20.9178 88.5603C20.7649 88.4598 20.6379 88.3246 20.5473 88.1656C20.444 87.9757 20.3939 87.7615 20.4023 87.5454C20.4001 87.3255 20.4556 87.1089 20.5634 86.9172C20.6678 86.7376 20.8109 86.5836 20.9822 86.4661C21.1601 86.3471 21.3559 86.2574 21.5622 86.2003C21.7818 86.1356 22.0097 86.103 22.2387 86.1037C22.5723 86.1022 22.9022 86.1736 23.2053 86.3131C23.5054 86.4547 23.7494 86.6929 23.898 86.9897L23.2214 87.4407C23.1182 87.2689 22.9744 87.1251 22.8026 87.0219C22.6174 86.9048 22.4014 86.8458 22.1824 86.8527C22.0679 86.853 21.954 86.8692 21.8441 86.9011C21.7357 86.9229 21.6321 86.9638 21.538 87.0219C21.4463 87.075 21.3689 87.1496 21.3125 87.2394C21.2486 87.3255 21.2146 87.4302 21.2158 87.5374C21.2163 87.636 21.2536 87.7308 21.3205 87.8032C21.3972 87.8861 21.4905 87.952 21.5944 87.9965C21.7206 88.0584 21.8528 88.1069 21.9891 88.1415C22.1418 88.1887 22.298 88.2237 22.4562 88.2462C22.6737 88.2945 22.8751 88.3428 23.0764 88.4073C23.2585 88.4723 23.4296 88.5647 23.5839 88.6811C23.7306 88.7916 23.8493 88.9351 23.9302 89.1C24.0234 89.2901 24.0677 89.5005 24.0591 89.7121C24.0661 89.9617 24.0078 90.2088 23.8899 90.429C23.7818 90.6201 23.63 90.7829 23.4469 90.9042C23.2543 91.0282 23.0418 91.1181 22.8187 91.17C22.5837 91.225 22.3431 91.2521 22.1018 91.2506C21.7301 91.2593 21.3604 91.1936 21.0144 91.0572C20.6824 90.901 20.4027 90.6521 20.209 90.3404L20.8453 89.8007Z" fill="black"/>
<path d="M26.8782 83.1718H27.6836V86.8689C27.7433 86.7611 27.8193 86.6632 27.9092 86.5789C28.0181 86.4809 28.1368 86.3946 28.2636 86.3211C28.4069 86.2435 28.5581 86.1814 28.7146 86.1359C28.8902 86.0865 29.0719 86.0621 29.2543 86.0634C29.5295 86.0605 29.8028 86.1097 30.0597 86.2084C30.2827 86.2976 30.4815 86.4384 30.6397 86.6192C30.798 86.8007 30.9136 87.0153 30.978 87.2474C31.053 87.5093 31.0909 87.7804 31.0907 88.0529V91.0975H30.2853V88.1576C30.3011 87.8117 30.205 87.47 30.0114 87.183C29.9086 87.0585 29.7773 86.9607 29.6287 86.8976C29.4801 86.8345 29.3186 86.8081 29.1576 86.8205C28.9221 86.8156 28.6884 86.8623 28.473 86.9575C28.2889 87.0476 28.1288 87.1801 28.0058 87.3441C27.8765 87.5259 27.7835 87.731 27.732 87.9482C27.6719 88.196 27.6421 88.4503 27.6434 88.7053V91.1217H26.8379L26.8782 83.1718Z" fill="black"/>
<path d="M39.3789 86.8769H38.2996V86.1842H39.3708V85.0888C39.3684 84.8182 39.3954 84.5481 39.4514 84.2833C39.5013 84.0504 39.6002 83.8308 39.7413 83.639C39.8817 83.4528 40.0675 83.3058 40.281 83.2121C40.5367 83.1081 40.8105 83.056 41.0865 83.059C41.1991 83.0518 41.3121 83.0518 41.4247 83.059C41.528 83.0778 41.6282 83.1103 41.7228 83.1557L41.6019 83.8887C41.4243 83.8213 41.2362 83.7858 41.0462 83.7839C40.8752 83.7762 40.7053 83.8152 40.5548 83.8967C40.4366 83.965 40.3434 84.0694 40.289 84.1947C40.2262 84.3428 40.1907 84.5011 40.1843 84.6619C40.1843 84.8472 40.1843 85.0405 40.1843 85.2499V86.1681H41.3764V86.8608H40.1924V91.0975H39.3869L39.3789 86.8769Z" fill="black"/>
<path d="M43.9379 87.3521C43.9379 87.1266 43.9379 86.9172 43.9379 86.7239C43.9379 86.5306 43.9379 86.3453 43.9379 86.1842H44.7433C44.7433 86.3211 44.7433 86.45 44.7433 86.5869C44.7433 86.7239 44.7433 86.8527 44.7433 86.9977C44.8052 86.8703 44.8868 86.7535 44.985 86.6514C45.0871 86.5313 45.2099 86.4304 45.3474 86.3534C45.491 86.2591 45.6487 86.1884 45.8146 86.1439C45.9972 86.0879 46.1874 86.0608 46.3784 86.0634H46.5476H46.7167L46.6603 86.8689C46.5192 86.8267 46.3727 86.805 46.2254 86.8044C46.016 86.7853 45.8052 86.8205 45.6133 86.9066C45.4214 86.9926 45.255 87.1267 45.1299 87.2957C44.8555 87.704 44.7199 88.1898 44.7433 88.6811V91.0975H43.9379V87.3521Z" fill="black"/>
<path d="M48.8189 88.6811C48.8164 88.3222 48.8848 87.9664 49.0203 87.634C49.1463 87.3312 49.3326 87.0571 49.568 86.8286C49.798 86.599 50.072 86.4182 50.3735 86.297C51.0497 86.05 51.7914 86.05 52.4676 86.297C52.7678 86.4208 53.0412 86.6013 53.2731 86.8286C53.5068 87.0585 53.6929 87.3322 53.8208 87.634C53.9536 87.9669 54.0192 88.3228 54.0141 88.6811C54.0184 89.0394 53.9527 89.3951 53.8208 89.7282C53.6936 90.0305 53.5074 90.3043 53.2731 90.5337C53.0431 90.7633 52.7691 90.9441 52.4676 91.0653C51.7914 91.3122 51.0497 91.3122 50.3735 91.0653C50.0703 90.9472 49.7958 90.766 49.568 90.5337C49.331 90.3065 49.1444 90.0321 49.0203 89.7282C48.8856 89.3957 48.8172 89.04 48.8189 88.6811ZM49.7049 88.6811C49.7005 88.9248 49.7387 89.1674 49.8177 89.398C49.8957 89.6107 50.0163 89.8053 50.1721 89.9699C50.324 90.1374 50.511 90.2695 50.7198 90.3565C50.9456 90.4556 51.1901 90.505 51.4367 90.5015C51.6833 90.5058 51.9279 90.4563 52.1535 90.3565C52.3657 90.2715 52.5558 90.1393 52.7093 89.9699C52.8635 89.8056 52.9815 89.6107 53.0556 89.398C53.1374 89.1679 53.1783 88.9253 53.1765 88.6811C53.179 88.4369 53.138 88.1942 53.0556 87.9643C52.9825 87.7487 52.8644 87.551 52.7093 87.3843C52.5514 87.22 52.3625 87.0886 52.1535 86.9977C51.9279 86.898 51.6833 86.8485 51.4367 86.8527C51.1901 86.8492 50.9456 86.8987 50.7198 86.9977C50.5143 87.0906 50.3284 87.2218 50.1721 87.3843C50.0141 87.5503 49.8932 87.748 49.8177 87.9643C49.738 88.1947 49.6998 88.4374 49.7049 88.6811Z" fill="black"/>
<path d="M57.0024 87.3521C57.0024 87.1266 57.0024 86.9172 57.0024 86.7239C57.0024 86.5225 57.0024 86.3453 57.0024 86.1842H57.8079C57.8079 86.3211 57.8079 86.45 57.8079 86.5869C57.8079 86.7239 57.8079 86.8527 57.8079 86.9977C57.8668 86.8706 57.9456 86.7536 58.0415 86.6514C58.1455 86.5332 58.2679 86.4326 58.4039 86.3534C58.5486 86.2611 58.706 86.1905 58.8711 86.1439C59.0564 86.0874 59.2493 86.0602 59.443 86.0634C59.6671 86.0572 59.8905 86.0899 60.1035 86.16C60.2642 86.2139 60.4142 86.2957 60.5465 86.4017C60.6589 86.4851 60.7545 86.5889 60.8284 86.7078C60.8879 86.8011 60.9416 86.8979 60.9895 86.9977C61.1518 86.7281 61.3652 86.4928 61.6177 86.305C61.8926 86.1341 62.2125 86.0499 62.5359 86.0634C62.837 86.0566 63.137 86.1029 63.422 86.2003C63.6438 86.2876 63.8403 86.4288 63.9938 86.6111C64.1467 86.8019 64.2541 87.025 64.308 87.2635C64.3756 87.543 64.4081 87.8298 64.4046 88.1173V91.0975H63.5992V88.1656C63.5994 88.0007 63.5832 87.8361 63.5508 87.6743C63.5165 87.5177 63.4507 87.3698 63.3575 87.2394C63.2635 87.1113 63.1389 87.0088 62.9951 86.9413C62.8118 86.8538 62.61 86.8124 62.4071 86.8205C62.238 86.8226 62.071 86.8582 61.9157 86.9252C61.7624 86.9957 61.6253 87.0972 61.513 87.2233C61.3925 87.3538 61.2994 87.5072 61.2392 87.6743C61.1732 87.866 61.1405 88.0676 61.1425 88.2704V91.0975H60.337V88.3187C60.366 87.9215 60.2881 87.5238 60.1115 87.1669C60.0323 87.052 59.9245 86.9597 59.7989 86.8989C59.6732 86.8382 59.5339 86.8112 59.3947 86.8205C59.1566 86.8159 58.9204 86.8626 58.702 86.9575C58.5193 87.0498 58.3597 87.1819 58.2348 87.3441C58.1054 87.5259 58.0125 87.731 57.9609 87.9482C57.9009 88.196 57.8711 88.4503 57.8723 88.7053V91.1217H57.0669L57.0024 87.3521Z" fill="black"/>
<path d="M74.8595 86.8769H73.4177V89.2933C73.4177 89.4544 73.4177 89.6074 73.4177 89.7443C73.4243 89.8671 73.4543 89.9874 73.5063 90.0987C73.556 90.1972 73.6311 90.2806 73.7238 90.3404C73.8529 90.4072 73.9976 90.4378 74.1426 90.429C74.2632 90.4408 74.3846 90.4408 74.5051 90.429C74.6303 90.3994 74.7518 90.3562 74.8676 90.3001V91.0411C74.719 91.1083 74.5617 91.1544 74.4004 91.1781C74.237 91.193 74.0725 91.193 73.9091 91.1781C73.6702 91.1895 73.4315 91.1511 73.2083 91.0653C73.0444 90.9976 72.9023 90.8862 72.7975 90.7431C72.6949 90.5852 72.6289 90.4063 72.6042 90.2196C72.5905 89.9916 72.5905 89.7629 72.6042 89.5349V86.8447H71.533V86.152H72.6042V84.7666H73.4097V86.152H74.8514L74.8595 86.8769Z" fill="black"/>
<path d="M77.5497 83.1718H78.3551V86.8689C78.4204 86.7627 78.4989 86.6653 78.5887 86.5789C78.8179 86.3689 79.0941 86.2169 79.3942 86.1359C79.5671 86.087 79.7461 86.0626 79.9258 86.0634C80.201 86.0609 80.4742 86.1101 80.7312 86.2084C80.9543 86.2976 81.153 86.4384 81.3112 86.6192C81.4695 86.8007 81.5851 87.0153 81.6495 87.2474C81.7245 87.5093 81.7625 87.7804 81.7622 88.0529V91.0975H80.9568V88.1576C80.975 87.8126 80.8818 87.4709 80.691 87.183C80.5881 87.0585 80.4569 86.9607 80.3083 86.8976C80.1597 86.8345 79.9981 86.8081 79.8372 86.8205C79.6017 86.8156 79.368 86.8623 79.1525 86.9575C78.9685 87.0476 78.8083 87.1801 78.6854 87.3441C78.5532 87.5243 78.4599 87.73 78.4115 87.9482C78.3514 88.196 78.3217 88.4503 78.3229 88.7053V91.1217H77.5175L77.5497 83.1718Z" fill="black"/>
<path d="M89.4302 90.1954C89.1826 90.5425 88.8497 90.8199 88.4637 91.0009C88.0783 91.1596 87.6641 91.2364 87.2474 91.2264C86.8933 91.2336 86.5418 91.165 86.2164 91.025C85.9121 90.9017 85.6375 90.715 85.411 90.4773C85.1945 90.2448 85.0273 89.9708 84.9196 89.6719C84.7991 89.3528 84.739 89.0141 84.7425 88.6731C84.7402 88.3157 84.803 87.9609 84.9277 87.626C85.0499 87.325 85.2306 87.0512 85.4593 86.8205C85.6882 86.5896 85.9624 86.4085 86.2648 86.2889C86.5857 86.1642 86.9273 86.1014 87.2716 86.1037C87.6012 86.0936 87.9296 86.1484 88.2381 86.2648C88.5194 86.3774 88.7724 86.5507 88.9792 86.7722C89.1917 87.0048 89.3536 87.2791 89.4544 87.5777C89.5718 87.9252 89.629 88.2902 89.6235 88.657V88.9228H85.6607C85.6753 89.1317 85.7271 89.3362 85.8137 89.5269C85.8999 89.7099 86.014 89.8784 86.152 90.0263C86.2933 90.1686 86.4599 90.2834 86.6433 90.3645C86.838 90.4527 87.0498 90.4967 87.2635 90.4934C87.5755 90.5034 87.8852 90.437 88.1657 90.3001C88.4228 90.1673 88.6481 89.9805 88.8261 89.7524L89.4302 90.1954ZM88.7295 88.1979C88.7309 87.8212 88.5833 87.4592 88.3187 87.191C88.1738 87.0606 88.0046 86.96 87.8208 86.895C87.637 86.8301 87.4421 86.802 87.2474 86.8125C86.8513 86.7878 86.4612 86.9189 86.1603 87.1777C85.8594 87.4364 85.6714 87.8025 85.6365 88.1979H88.7295Z" fill="black"/>
<path d="M97.5573 86.8769H96.4861V86.1842H97.5573V85.0888C97.555 84.8182 97.582 84.5481 97.6379 84.2833C97.6879 84.0504 97.7867 83.8308 97.9279 83.639C98.0682 83.4528 98.254 83.3058 98.4675 83.2121C98.7229 83.1072 98.9969 83.0552 99.273 83.059C99.3856 83.0518 99.4986 83.0518 99.6113 83.059C99.7123 83.0764 99.81 83.109 99.9012 83.1557L99.7885 83.8887C99.6108 83.8213 99.4227 83.7858 99.2327 83.7839C99.0617 83.7762 98.8919 83.8152 98.7414 83.8967C98.6231 83.965 98.5299 84.0694 98.4756 84.1947C98.409 84.3416 98.3734 84.5006 98.3709 84.6619C98.3709 84.8472 98.3709 85.0405 98.3709 85.2499V86.1681H99.5629V86.8608H98.3709V91.0975H97.5654L97.5573 86.8769Z" fill="black"/>
<path d="M102.044 86.8125C102.293 86.5564 102.599 86.3631 102.938 86.2486C103.276 86.1242 103.633 86.0614 103.993 86.0634C104.276 86.0363 104.562 86.0681 104.832 86.1569C105.102 86.2456 105.352 86.3893 105.564 86.5789C105.918 87.0158 106.091 87.5724 106.047 88.1334V90.2437C106.047 90.3807 106.047 90.5256 106.047 90.6706C106.047 90.8156 106.047 90.9606 106.103 91.0895H105.298C105.272 90.9674 105.256 90.8435 105.249 90.7189V90.3565C105.081 90.629 104.843 90.8518 104.56 91.0018C104.277 91.1519 103.959 91.2238 103.639 91.2103C103.399 91.2141 103.161 91.1843 102.93 91.1217C102.724 91.0624 102.53 90.9669 102.358 90.8398C102.193 90.7216 102.058 90.5673 101.963 90.3887C101.864 90.1943 101.815 89.9786 101.818 89.7604C101.799 89.4128 101.911 89.0706 102.132 88.802C102.354 88.5683 102.631 88.3939 102.938 88.2945C103.262 88.177 103.601 88.1065 103.945 88.0851C104.299 88.0851 104.629 88.0448 104.927 88.0448H105.241V87.8757C105.252 87.7266 105.229 87.5771 105.174 87.4378C105.12 87.2986 105.036 87.1731 104.927 87.0702C104.67 86.8775 104.354 86.7806 104.033 86.7964C103.759 86.7945 103.486 86.8408 103.228 86.9333C102.975 87.0161 102.744 87.1536 102.551 87.336L102.044 86.8125ZM104.412 88.7295C103.984 88.7094 103.557 88.7865 103.163 88.955C103.022 89.0128 102.903 89.1126 102.821 89.2409C102.738 89.3692 102.698 89.5197 102.704 89.6719C102.693 89.7991 102.716 89.9269 102.769 90.0428C102.823 90.1586 102.906 90.2584 103.01 90.3323C103.254 90.4737 103.534 90.5409 103.816 90.5256C104.029 90.5299 104.24 90.4887 104.436 90.4048C104.606 90.3278 104.759 90.2183 104.887 90.0826C105.006 89.9465 105.097 89.7876 105.153 89.6155C105.217 89.4314 105.252 89.2385 105.258 89.0436V88.7295H104.412Z" fill="black"/>
<path d="M109.22 87.3521C109.22 87.1266 109.22 86.9172 109.22 86.7239C109.22 86.5225 109.22 86.3453 109.22 86.1842H110.026C110.026 86.3211 110.026 86.45 110.026 86.5869C110.026 86.7239 110.026 86.8527 110.026 86.9977C110.085 86.8706 110.164 86.7536 110.259 86.6514C110.365 86.5349 110.487 86.4345 110.622 86.3534C110.766 86.2611 110.924 86.1905 111.089 86.1439C111.274 86.0874 111.467 86.0602 111.661 86.0634H111.822H111.991L111.943 86.8689C111.799 86.8269 111.65 86.8052 111.5 86.8044C111.29 86.7861 111.08 86.8217 110.888 86.9077C110.696 86.9937 110.53 87.1273 110.404 87.2957C110.158 87.6937 110.04 88.1576 110.066 88.6248V91.0411H109.261L109.22 87.3521Z" fill="black"/>
<path d="M114.577 87.3521C114.577 87.1266 114.577 86.9172 114.577 86.7239C114.577 86.5306 114.577 86.3453 114.577 86.1842H115.382C115.382 86.3211 115.382 86.45 115.382 86.5869C115.382 86.7239 115.382 86.8527 115.382 86.9977C115.444 86.8703 115.526 86.7535 115.624 86.6514C115.726 86.5313 115.849 86.4304 115.986 86.3534C116.13 86.2591 116.287 86.1884 116.453 86.1439C116.636 86.0879 116.826 86.0608 117.017 86.0634C117.244 86.0573 117.47 86.09 117.686 86.16C117.846 86.2157 117.995 86.2973 118.129 86.4017C118.239 86.4872 118.334 86.5907 118.411 86.7078C118.475 86.8125 118.523 86.9091 118.572 86.9977C118.729 86.7243 118.943 86.488 119.2 86.305C119.475 86.1341 119.795 86.0499 120.118 86.0634C120.417 86.0565 120.714 86.1029 120.996 86.2003C121.221 86.2855 121.421 86.4269 121.576 86.6111C121.729 86.8019 121.836 87.025 121.89 87.2635C121.955 87.5434 121.985 87.8302 121.979 88.1173V91.0975H121.173V88.1656C121.174 88.0007 121.157 87.8361 121.125 87.6743C121.087 87.5189 121.022 87.3715 120.932 87.2394C120.838 87.1113 120.713 87.0088 120.569 86.9413C120.386 86.8548 120.184 86.8133 119.981 86.8205C119.812 86.8218 119.645 86.8574 119.49 86.9252C119.175 87.0769 118.932 87.3458 118.813 87.6743C118.747 87.866 118.715 88.0676 118.717 88.2704V91.0975H117.911V88.3187C117.942 87.9223 117.867 87.5248 117.694 87.1669C117.614 87.0507 117.505 86.9576 117.378 86.8969C117.25 86.8361 117.109 86.8098 116.969 86.8205C116.733 86.8156 116.5 86.8623 116.284 86.9575C116.1 87.0476 115.94 87.1801 115.817 87.3441C115.685 87.5243 115.592 87.73 115.543 87.9482C115.479 88.1953 115.449 88.4501 115.455 88.7053V91.1217H114.649L114.577 87.3521Z" fill="black"/>
<path d="M74.7709 22.3274V21.9568H70.2845V22.3274H74.7709Z" fill="#231F20"/>
<path d="M74.7709 23.0362V22.6656H70.2845V23.0362H74.7709Z" fill="#231F20"/>
</g>
<defs>
<clipPath id="clip0_10_356">
<rect width="124.21" height="91.2103" fill="white"/>
</clipPath>
</defs>
</svg>
